<svg xmlns="http://www.w3.org/2000/svg" width="225" height="225" viewBox="0 0 225 225" version="1.1"><path d="M 83.500 15.611 C 69.750 20.857, 57.938 25.877, 57.250 26.766 C 56.304 27.989, 56 36.963, 56 63.641 C 56 95.941, 56.144 98.981, 57.719 99.863 C 58.903 100.525, 60.303 100.377, 62.219 99.387 C 65 97.949, 65 97.949, 65 84.409 C 65 76.962, 65.423 70.079, 65.939 69.114 C 66.456 68.148, 68.593 66.631, 70.689 65.742 C 72.785 64.853, 79.450 62.252, 85.500 59.963 C 91.550 57.673, 98.075 55.221, 100 54.513 C 103.500 53.226, 103.500 53.226, 108.245 30.959 C 111.815 14.205, 112.713 8.359, 111.872 7.346 C 111.258 6.606, 110.248 6.016, 109.628 6.037 C 109.007 6.057, 97.250 10.365, 83.500 15.611 M 100.763 135.750 C 100.500 169.500, 100.500 169.500, 95.753 172 C 91.124 174.438, 91.006 174.616, 91.003 179.179 C 91.001 182.025, 91.592 184.450, 92.513 185.370 C 93.345 186.202, 105.570 194.622, 119.679 204.081 C 139.829 217.590, 145.673 221.066, 146.916 220.281 C 148.313 219.401, 148.531 214.357, 148.761 177.596 C 148.935 149.737, 148.672 135.255, 147.965 133.935 C 147.384 132.849, 136.811 125.220, 124.471 116.980 C 112.130 108.741, 101.806 102, 101.530 102 C 101.253 102, 100.908 117.188, 100.763 135.750" stroke="none" fill="#241b5a" fill-rule="evenodd"/><path d="M 86 14.500 C 86 14.775, 86.225 15, 86.500 15 C 86.775 15, 87 14.775, 87 14.500 C 87 14.225, 86.775 14, 86.500 14 C 86.225 14, 86 14.225, 86 14.500 M 73 19.500 C 73 19.775, 73.225 20, 73.500 20 C 73.775 20, 74 19.775, 74 19.500 C 74 19.225, 73.775 19, 73.500 19 C 73.225 19, 73 19.225, 73 19.500 M 110 20.500 C 110 20.775, 110.225 21, 110.500 21 C 110.775 21, 111 20.775, 111 20.500 C 111 20.225, 110.775 20, 110.500 20 C 110.225 20, 110 20.225, 110 20.500 M 107 34.500 C 107 34.775, 107.225 35, 107.500 35 C 107.775 35, 108 34.775, 108 34.500 C 108 34.225, 107.775 34, 107.500 34 C 107.225 34, 107 34.225, 107 34.500 M 144.500 37.471 C 141.200 38.777, 133.666 41.689, 127.758 43.943 C 121.850 46.196, 112.400 49.787, 106.758 51.921 C 101.116 54.055, 91.550 57.674, 85.500 59.963 C 79.450 62.252, 72.785 64.853, 70.689 65.742 C 68.593 66.631, 66.446 68.166, 65.918 69.153 C 65.335 70.242, 64.967 93.273, 64.983 127.693 C 65.005 175.546, 65.233 184.662, 66.439 185.868 C 67.680 187.108, 70.036 186.117, 84.185 178.399 C 100.500 169.500, 100.500 169.500, 100.763 135.750 C 100.908 117.188, 101.255 102, 101.533 102 C 101.812 102, 110.097 107.384, 119.945 113.963 C 137.850 125.927, 137.850 125.927, 138.836 121.213 C 139.379 118.621, 143.519 98.860, 148.038 77.301 C 152.556 55.742, 155.985 37.404, 155.658 36.551 C 155.331 35.698, 154.036 35.022, 152.781 35.049 C 151.527 35.076, 147.800 36.166, 144.500 37.471 M 106 39.500 C 106 39.775, 106.225 40, 106.500 40 C 106.775 40, 107 39.775, 107 39.500 C 107 39.225, 106.775 39, 106.500 39 C 106.225 39, 106 39.225, 106 39.500 M 105 44.500 C 105 44.775, 105.225 45, 105.500 45 C 105.775 45, 106 44.775, 106 44.500 C 106 44.225, 105.775 44, 105.500 44 C 105.225 44, 105 44.225, 105 44.500 M 93 186.500 C 93 186.775, 93.225 187, 93.500 187 C 93.775 187, 94 186.775, 94 186.500 C 94 186.225, 93.775 186, 93.500 186 C 93.225 186, 93 186.225, 93 186.500 M 96 188.500 C 96 188.775, 96.225 189, 96.500 189 C 96.775 189, 97 188.775, 97 188.500 C 97 188.225, 96.775 188, 96.500 188 C 96.225 188, 96 188.225, 96 188.500 M 108 196.500 C 108 196.775, 108.225 197, 108.500 197 C 108.775 197, 109 196.775, 109 196.500 C 109 196.225, 108.775 196, 108.500 196 C 108.225 196, 108 196.225, 108 196.500 M 139 217.500 C 139 217.775, 139.225 218, 139.500 218 C 139.775 218, 140 217.775, 140 217.500 C 140 217.225, 139.775 217, 139.500 217 C 139.225 217, 139 217.225, 139 217.500" stroke="none" fill="#dc0a7d" fill-rule="evenodd"/></svg>